<svg width="172" height="30" viewBox="0 0 172 30" fill="none" xmlns="http://www.w3.org/2000/svg">
<path d="M11.4529 0.156889C14.3291 0.156889 16.5779 0.431444 18.1991 0.980554C19.8202 1.50351 20.9707 2.43177 21.6506 3.76532C22.3304 5.09887 22.6704 6.96846 22.6704 9.37408C22.6704 11.7536 22.3435 13.6101 21.6898 14.9436C21.0623 16.251 20.0163 17.1793 18.5521 17.7284C17.0878 18.2513 15.1136 18.5128 12.6295 18.5128C11.9497 18.5128 11.2567 18.4998 10.5507 18.4736C9.87089 18.4213 9.19104 18.3559 8.5112 18.2775V27.6124H0V0.549109C1.20281 0.418369 2.32718 0.326851 3.3731 0.274556C4.44517 0.222259 5.60876 0.19611 6.86387 0.19611C8.11897 0.169963 9.64863 0.156889 11.4529 0.156889ZM11.2567 6.15787C10.237 6.15787 9.32178 6.15787 8.5112 6.15787V12.5118H11.2567C12.4073 12.5118 13.1786 12.3027 13.5708 11.8843C13.9631 11.4659 14.1592 10.6292 14.1592 9.37408C14.1592 8.06668 13.9631 7.20379 13.5708 6.78542C13.1786 6.36705 12.4073 6.15787 11.2567 6.15787Z" fill="#FFCC00"/>
<path d="M57.2177 0.156889V10.6684C57.2177 11.9758 57.1131 13.2571 56.9039 14.5122H58.0413L61.7674 8.00131H70.7885L66.6702 14.4337C66.3826 14.9567 66.0034 15.4404 65.5328 15.8849C65.0621 16.3033 64.683 16.604 64.3953 16.7871V16.9439C64.683 17.1008 65.0621 17.4408 65.5328 17.9637C66.0034 18.4867 66.3826 19.0227 66.6702 19.5718L71.5337 27.6124H62.4734L58.0021 19.1404H56.9431C57.0216 19.6372 57.0869 20.134 57.1392 20.6308C57.1915 21.1276 57.2177 21.5852 57.2177 22.0036V27.6124H48.981V0.156889H57.2177Z" fill="#FFCC00"/>
<path d="M82.4341 7.4522C86.121 7.4522 88.7358 8.04053 90.2785 9.21719C91.8213 10.3939 92.6057 12.1327 92.6319 14.4337C92.658 16.2641 92.1089 17.5846 90.9845 18.3952C89.8863 19.2058 87.8991 19.611 85.0228 19.611H80.12C80.2769 20.4216 80.5907 20.9838 81.0613 21.2976C81.5582 21.6114 82.3295 21.7683 83.3754 21.7683C84.1599 21.7683 85.2581 21.7421 86.6701 21.6898C88.1082 21.6375 89.664 21.5199 91.3375 21.3368L92.0827 26.2788C90.6969 26.9848 89.1934 27.4555 87.5722 27.6908C85.951 27.9523 84.2514 28.083 82.4733 28.083C79.7539 28.083 77.5706 27.7039 75.9232 26.9456C74.2759 26.1873 73.0862 25.0629 72.354 23.5725C71.648 22.0559 71.295 20.1863 71.295 17.9637C71.295 15.3751 71.6611 13.3224 72.3933 11.8059C73.1254 10.2631 74.3021 9.15182 75.9232 8.47197C77.5706 7.79212 79.7409 7.4522 82.4341 7.4522ZM82.6694 12.7472C81.6758 12.721 80.9829 12.8779 80.5907 13.2178C80.2246 13.5578 80.0154 14.3945 79.9631 15.7281H82.7087C83.5977 15.7281 84.1599 15.6496 84.3952 15.4927C84.6305 15.3097 84.7482 14.8913 84.7482 14.2376C84.7482 13.6101 84.5913 13.2048 84.2775 13.0217C83.9638 12.8387 83.4277 12.7472 82.6694 12.7472Z" fill="#FFCC00"/>
<path d="M106.981 0.156889C109.648 0.156889 111.818 0.405295 113.492 0.902108C115.165 1.39892 116.394 2.24873 117.179 3.45154C117.989 4.62821 118.395 6.27554 118.395 8.39353C118.395 9.4656 118.225 10.4723 117.885 11.4136C117.571 12.3288 117.009 13.0871 116.198 13.6885C115.414 14.2899 114.316 14.6691 112.904 14.826V15.0613C113.4 15.1136 113.949 15.2705 114.551 15.5319C115.152 15.7673 115.714 16.1857 116.237 16.7871C116.76 17.3623 117.126 18.1991 117.336 19.2973L119.454 27.6124H110.55L108.785 19.5718C108.628 18.8135 108.38 18.3167 108.04 18.0814C107.726 17.8461 107.203 17.7284 106.471 17.7284C105.974 17.7284 105.504 17.7284 105.059 17.7284C104.641 17.7284 104.235 17.7284 103.843 17.7284V27.6124H95.4889V0.549109C96.6917 0.418369 97.8161 0.326851 98.862 0.274556C99.9341 0.222259 101.098 0.19611 102.353 0.19611C103.634 0.169963 105.177 0.156889 106.981 0.156889ZM106.785 6.15787C105.687 6.15787 104.706 6.15787 103.843 6.15787V11.7274H106.785C108.014 11.7274 108.824 11.5444 109.217 11.1783C109.635 10.8122 109.844 10.067 109.844 8.94264C109.844 7.81827 109.635 7.07305 109.217 6.70698C108.824 6.34091 108.014 6.15787 106.785 6.15787Z" fill="#FFCC00"/>
<path d="M133.447 0.156889C136.324 0.156889 138.572 0.431444 140.194 0.980554C141.815 1.50351 142.965 2.43177 143.645 3.76532C144.325 5.09887 144.665 6.96846 144.665 9.37408C144.665 11.7536 144.338 13.6101 143.684 14.9436C143.057 16.251 142.011 17.1793 140.547 17.7284C139.082 18.2513 137.108 18.5128 134.624 18.5128C133.944 18.5128 133.251 18.4998 132.545 18.4736C131.865 18.4213 131.186 18.3559 130.506 18.2775V27.6124H121.994V0.549109C123.197 0.418369 124.322 0.326851 125.368 0.274556C126.44 0.222259 127.603 0.19611 128.858 0.19611C130.113 0.169963 131.643 0.156889 133.447 0.156889ZM133.251 6.15787C132.231 6.15787 131.316 6.15787 130.506 6.15787V12.5118H133.251C134.402 12.5118 135.173 12.3027 135.565 11.8843C135.958 11.4659 136.154 10.6292 136.154 9.37408C136.154 8.06668 135.958 7.20379 135.565 6.78542C135.173 6.36705 134.402 6.15787 133.251 6.15787Z" fill="#FFCC00"/>
<path d="M170.061 12.0412V27.6124H163.785L163.04 24.8276C162.412 25.5859 161.458 26.3311 160.177 27.0632C158.921 27.7954 157.379 28.1615 155.548 28.1615C153.483 28.1615 151.783 27.7039 150.45 26.7887C149.116 25.8474 148.135 24.3438 147.508 22.2782C146.88 20.2125 146.567 17.48 146.567 14.0807C146.567 10.603 146.972 7.84442 147.782 5.80487C148.619 3.73917 149.966 2.26181 151.822 1.37277C153.705 0.457591 156.202 0 159.314 0C160.752 0 162.007 0.0392224 163.079 0.117667C164.177 0.196112 165.184 0.313778 166.099 0.470666C167.04 0.627554 167.982 0.849813 168.923 1.13744L168.296 7.25609C166.805 7.22994 165.393 7.21687 164.06 7.21687C162.752 7.19072 161.183 7.17764 159.353 7.17764C158.359 7.17764 157.575 7.37375 157 7.76597C156.45 8.13205 156.058 8.8119 155.823 9.80552C155.614 10.7992 155.509 12.2242 155.509 14.0807C155.509 15.9111 155.614 17.3231 155.823 18.3167C156.032 19.2842 156.385 19.964 156.882 20.3563C157.379 20.7223 158.072 20.9054 158.961 20.9054C159.536 20.9054 160.072 20.8792 160.569 20.8269C161.066 20.7746 161.51 20.7223 161.902 20.67V12.0412H170.061Z" fill="#FFCC00"/>
<path d="M13.2914 1.99542C16.1677 1.99542 18.4164 2.26998 20.0376 2.81909C21.6588 3.34205 22.8093 4.27031 23.4891 5.60386C24.169 6.93741 24.5089 8.80699 24.5089 11.2126C24.5089 13.5921 24.1821 15.4486 23.5284 16.7822C22.9008 18.0896 21.8549 19.0178 20.3906 19.5669C18.9263 20.0899 16.9521 20.3514 14.4681 20.3514C13.7882 20.3514 13.0953 20.3383 12.3893 20.3121C11.7094 20.2598 11.0296 20.1945 10.3497 20.116V29.4509H1.83854V2.38764C3.04135 2.2569 4.16572 2.16539 5.21164 2.11309C6.28371 2.06079 7.4473 2.03465 8.70241 2.03465C9.95751 2.0085 11.4872 1.99542 13.2914 1.99542ZM13.0953 7.9964C12.0755 7.9964 11.1603 7.9964 10.3497 7.9964V14.3504H13.0953C14.2458 14.3504 15.0172 14.1412 15.4094 13.7228C15.8016 13.3045 15.9977 12.4677 15.9977 11.2126C15.9977 9.90521 15.8016 9.04233 15.4094 8.62396C15.0172 8.20559 14.2458 7.9964 13.0953 7.9964Z" fill="#3699FF"/>
<path d="M59.0562 1.99542V12.5069C59.0562 13.8143 58.9516 15.0956 58.7424 16.3507H59.8799L63.606 9.83984H72.6271L68.5087 16.2723C68.2211 16.7952 67.842 17.279 67.3713 17.7235C66.9006 18.1419 66.5215 18.4426 66.2339 18.6256V18.7825C66.5215 18.9394 66.9006 19.2793 67.3713 19.8023C67.842 20.3252 68.2211 20.8613 68.5087 21.4104L73.3723 29.4509H64.312L59.8407 20.9789H58.7817C58.8601 21.4757 58.9255 21.9725 58.9778 22.4694C59.0301 22.9662 59.0562 23.4238 59.0562 23.8421V29.4509H50.8196V1.99542H59.0562Z" fill="#3699FF"/>
<path d="M84.2727 9.29073C87.9595 9.29073 90.5743 9.87907 92.1171 11.0557C93.6598 12.2324 94.4442 13.9712 94.4704 16.2723C94.4965 18.1026 93.9474 19.4231 92.8231 20.2337C91.7248 21.0443 89.7376 21.4496 86.8613 21.4496H81.9585C82.1154 22.2602 82.4292 22.8224 82.8999 23.1361C83.3967 23.4499 84.1681 23.6068 85.214 23.6068C85.9984 23.6068 87.0966 23.5807 88.5086 23.5284C89.9468 23.4761 91.5026 23.3584 93.1761 23.1754L93.9213 28.1173C92.5354 28.8233 91.0319 29.294 89.4107 29.5293C87.7896 29.7908 86.0899 29.9216 84.3119 29.9216C81.5925 29.9216 79.4091 29.5424 77.7618 28.7841C76.1145 28.0258 74.9247 26.9015 74.1926 25.411C73.4866 23.8944 73.1336 22.0248 73.1336 19.8023C73.1336 17.2136 73.4996 15.161 74.2318 13.6444C74.9639 12.1017 76.1406 10.9904 77.7618 10.3105C79.4091 9.63066 81.5794 9.29073 84.2727 9.29073ZM84.508 14.5857C83.5144 14.5596 82.8214 14.7165 82.4292 15.0564C82.0631 15.3963 81.854 16.233 81.8017 17.5666H84.5472C85.4362 17.5666 85.9984 17.4882 86.2337 17.3313C86.4691 17.1482 86.5868 16.7299 86.5868 16.0762C86.5868 15.4486 86.4299 15.0433 86.1161 14.8603C85.8023 14.6772 85.2663 14.5857 84.508 14.5857Z" fill="#3699FF"/>
<path d="M108.82 1.99542C111.487 1.99542 113.657 2.24383 115.33 2.74064C117.004 3.23746 118.233 4.08727 119.017 5.29008C119.828 6.46674 120.233 8.11407 120.233 10.2321C120.233 11.3041 120.063 12.3108 119.723 13.2522C119.41 14.1673 118.847 14.9256 118.037 15.527C117.252 16.1285 116.154 16.5076 114.742 16.6645V16.8998C115.239 16.9521 115.788 17.109 116.389 17.3705C116.991 17.6058 117.553 18.0242 118.076 18.6256C118.599 19.2008 118.965 20.0376 119.174 21.1358L121.292 29.4509H112.389L110.624 21.4104C110.467 20.6521 110.218 20.1553 109.879 19.9199C109.565 19.6846 109.042 19.5669 108.31 19.5669C107.813 19.5669 107.342 19.5669 106.898 19.5669C106.479 19.5669 106.074 19.5669 105.682 19.5669V29.4509H97.3275V2.38764C98.5303 2.2569 99.6547 2.16539 100.701 2.11309C101.773 2.06079 102.936 2.03465 104.191 2.03465C105.473 2.0085 107.015 1.99542 108.82 1.99542ZM108.623 7.9964C107.525 7.9964 106.545 7.9964 105.682 7.9964V13.5659H108.623C109.852 13.5659 110.663 13.3829 111.055 13.0168C111.474 12.6508 111.683 11.9055 111.683 10.7812C111.683 9.65681 111.474 8.91159 111.055 8.54551C110.663 8.17944 109.852 7.9964 108.623 7.9964Z" fill="#3699FF"/>
<path d="M135.286 1.99542C138.162 1.99542 140.411 2.26998 142.032 2.81909C143.653 3.34205 144.804 4.27031 145.484 5.60386C146.163 6.93741 146.503 8.80699 146.503 11.2126C146.503 13.5921 146.177 15.4486 145.523 16.7822C144.895 18.0896 143.849 19.0178 142.385 19.5669C140.921 20.0899 138.947 20.3514 136.463 20.3514C135.783 20.3514 135.09 20.3383 134.384 20.3121C133.704 20.2598 133.024 20.1945 132.344 20.116V29.4509H123.833V2.38764C125.036 2.2569 126.16 2.16539 127.206 2.11309C128.278 2.06079 129.442 2.03465 130.697 2.03465C131.952 2.0085 133.482 1.99542 135.286 1.99542ZM135.09 7.9964C134.07 7.9964 133.155 7.9964 132.344 7.9964V14.3504H135.09C136.24 14.3504 137.012 14.1412 137.404 13.7228C137.796 13.3045 137.992 12.4677 137.992 11.2126C137.992 9.90521 137.796 9.04233 137.404 8.62396C137.012 8.20559 136.24 7.9964 135.09 7.9964Z" fill="#3699FF"/>
<path d="M171.899 13.8797V29.4509H165.624L164.878 26.6661C164.251 27.4244 163.296 28.1696 162.015 28.9018C160.76 29.6339 159.217 30 157.387 30C155.321 30 153.622 29.5424 152.288 28.6272C150.954 27.6859 149.974 26.1824 149.346 24.1167C148.719 22.051 148.405 19.3185 148.405 15.9193C148.405 12.4416 148.81 9.68295 149.621 7.6434C150.458 5.57771 151.804 4.10034 153.661 3.21131C155.543 2.29613 158.041 1.83854 161.152 1.83854C162.59 1.83854 163.845 1.87776 164.918 1.9562C166.016 2.03465 167.022 2.15231 167.938 2.3092C168.879 2.46609 169.82 2.68835 170.762 2.97598L170.134 9.09462C168.644 9.06847 167.232 9.0554 165.898 9.0554C164.591 9.02925 163.022 9.01618 161.191 9.01618C160.198 9.01618 159.413 9.21229 158.838 9.60451C158.289 9.97058 157.897 10.6504 157.661 11.6441C157.452 12.6377 157.348 14.0628 157.348 15.9193C157.348 17.7496 157.452 19.1616 157.661 20.1553C157.871 21.1227 158.224 21.8026 158.72 22.1948C159.217 22.5609 159.91 22.7439 160.799 22.7439C161.375 22.7439 161.911 22.7178 162.407 22.6655C162.904 22.6132 163.349 22.5609 163.741 22.5086V13.8797H171.899Z" fill="#3699FF"/>
<path fill-rule="evenodd" clip-rule="evenodd" d="M25.5385 18.9256C25.5385 13.3683 29.648 8.76667 34.9939 8.00131V8.94055H38.1456V8.00132C43.4915 8.76673 47.6009 13.3683 47.6009 18.9256C47.6009 24.4829 43.4915 29.0845 38.1456 29.8499V28.9107H34.9939V29.8499C29.648 29.0846 25.5385 24.483 25.5385 18.9256Z" fill="#3699FF"/>
<path fill-rule="evenodd" clip-rule="evenodd" d="M27.3035 18.9387C27.3035 14.2705 30.7554 10.4086 35.246 9.7663V10.555H37.8935V9.76631C42.384 10.4086 45.8359 14.2705 45.8359 18.9387C45.8359 23.6068 42.384 27.4687 37.8935 28.1111V27.3224H35.246V28.1111C30.7554 27.4688 27.3035 23.6068 27.3035 18.9387Z" fill="#FFCC00"/>
<rect x="33.0397" y="15.5025" width="7.05998" height="7.05998" rx="3.52999" fill="#3699FF"/>
<rect x="26.421" y="18.15" width="19.8562" height="1.76499" fill="#3699FF"/>
<rect x="34.3634" y="16.8263" width="4.41249" height="4.41249" rx="2.20624" fill="white"/>
</svg>
