<svg width="638" height="534" viewBox="0 0 638 534" fill="none" xmlns="http://www.w3.org/2000/svg">
<path d="M223.656 65.6593C187.26 79.1958 130.555 95.1611 104.553 126.215C87.6735 146.374 92.2973 174.694 97.7472 197.524C114.456 267.515 147.659 340.31 201.82 389.378C295.359 474.12 410.974 392.151 475.472 316.088C532.905 248.358 545.761 147.223 519.143 63.1126C490.149 -28.5062 328.834 16.8856 265.625 38.4941C217.885 54.8146 172.62 79.7447 130.359 106.973C87.9246 134.313 34.2702 168.077 15.5097 217.897C-18.6971 308.737 70.3888 413.954 152.761 440.312C284.589 482.496 463.871 425.081 534.457 302.789C558.44 261.236 576.11 174.764 523.113 146.023C451.992 107.453 384.044 107.909 306.744 128.479C220.571 151.409 131.157 182.555 114.762 280.717C98.9194 375.568 163.567 489.836 257.401 517.28C395.269 557.604 544.818 451.283 613.007 337.877C663.127 254.523 592.889 157.895 525.382 106.407C450.701 49.4485 324.364 78.3101 257.685 134.704C211.811 173.502 183.372 225.734 159 279.585C141.775 317.645 140.585 343.405 169.209 376.361C188.469 398.537 231.265 437.483 264.491 437.483" stroke="#E7F2FD" stroke-width="15" stroke-linecap="round" stroke-linejoin="round"/>
</svg>
