<svg width="2757" height="1510" viewBox="0 0 2757 1510" fill="none" xmlns="http://www.w3.org/2000/svg">
<path d="M198.553 418.796C-2.1772 630.209 -60.2819 1101.38 188.504 1280.98C693.494 1645.53 1282.72 1462.32 1786.24 1192.03C2009.42 1072.22 2236.83 948.986 2451.13 791.041C2556.92 713.065 2679.65 582.433 2724.12 394.162C2772.55 189.064 2611.38 98.7683 2519.79 62.9741C2211.06 -57.684 1852.32 129.478 1553.45 249.096C1287.71 355.453 1018.59 437.612 752.904 543.334C598.445 604.796 359.59 683.772 265.544 919.684C64.804 1423.23 1067.16 1254.45 1157.36 1230.34C1378.42 1171.27 1592.9 1056.56 1808.85 962.109C1978.48 887.923 2148.42 829.057 2308.77 714.402" stroke="#3699FF" stroke-opacity="0.1" stroke-width="48" stroke-linecap="round" stroke-linejoin="round"/>
</svg>
